<svg xmlns="http://www.w3.org/2000/svg" version="1.1" width="624" height="92">
<path d="M 17.985352 14.594238 L 17.985352 25.594238 L 17.061523 25.594238 L 17.061523 14.594238 Z " fill="rgb(0, 0, 0)" fill-opacity="1.000000" />
<path d="M 17.985352 27.594238 L 17.985352 38.594238 L 17.061523 38.594238 L 17.061523 27.594238 Z " fill="rgb(0, 0, 0)" fill-opacity="1.000000" />
<path d="M 17.985352 40.594238 L 17.985352 51.594238 L 17.061523 51.594238 L 17.061523 40.594238 Z " fill="rgb(0, 0, 0)" fill-opacity="1.000000" />
<path d="M 17.985352 53.594238 L 17.985352 64.594238 L 17.061523 64.594238 L 17.061523 53.594238 Z " fill="rgb(0, 0, 0)" fill-opacity="1.000000" />
<path d="M 17.985352 66.594238 L 17.985352 77.594238 L 17.061523 77.594238 L 17.061523 66.594238 Z " fill="rgb(0, 0, 0)" fill-opacity="1.000000" />
<path d="M 27.574219 76.020508 L 27.574219 76.933594 L 21.000000 76.933594 L 21.000000 76.020508 Z " fill="rgb(0, 0, 0)" fill-opacity="1.000000" />
<path d="M 31.985352 66.594238 L 31.985352 77.594238 L 31.061523 77.594238 L 31.061523 66.594238 Z " fill="rgb(0, 0, 0)" fill-opacity="1.000000" />
<path d="M 45.985352 66.594238 L 45.985352 77.594238 L 45.061523 77.594238 L 45.061523 66.594238 Z " fill="rgb(0, 0, 0)" fill-opacity="1.000000" />
<path d="M 55.574219 76.020508 L 55.574219 76.933594 L 49.000000 76.933594 L 49.000000 76.020508 Z " fill="rgb(0, 0, 0)" fill-opacity="1.000000" />
<path d="M 59.985352 66.594238 L 59.985352 77.594238 L 59.061523 77.594238 L 59.061523 66.594238 Z " fill="rgb(0, 0, 0)" fill-opacity="1.000000" />
<path d="M 64.573730 66.980957 L 68.795410 76.020508 L 67.774902 76.020508 L 63.547852 66.980957 Z " fill="rgb(0, 0, 0)" fill-opacity="1.000000" />
<path d="M 76.574219 76.020508 L 76.574219 76.933594 L 70.000000 76.933594 L 70.000000 76.020508 Z " fill="rgb(0, 0, 0)" fill-opacity="1.000000" />
<path d="M 83.574219 76.020508 L 83.574219 76.933594 L 77.000000 76.933594 L 77.000000 76.020508 Z " fill="rgb(0, 0, 0)" fill-opacity="1.000000" />
<path d="M 90.574219 76.020508 L 90.574219 76.933594 L 84.000000 76.933594 L 84.000000 76.020508 Z " fill="rgb(0, 0, 0)" fill-opacity="1.000000" />
<path d="M 95.774902 66.980957 L 96.795410 66.980957 L 92.573730 76.020508 L 91.547852 76.020508 Z " fill="rgb(0, 0, 0)" fill-opacity="1.000000" />
<path d="M 101.985352 66.594238 L 101.985352 77.594238 L 101.061523 77.594238 L 101.061523 66.594238 Z " fill="rgb(0, 0, 0)" fill-opacity="1.000000" />
<path d="M 111.574219 76.020508 L 111.574219 76.933594 L 105.000000 76.933594 L 105.000000 76.020508 Z " fill="rgb(0, 0, 0)" fill-opacity="1.000000" />
<path d="M 115.985352 66.594238 L 115.985352 77.594238 L 115.061523 77.594238 L 115.061523 66.594238 Z " fill="rgb(0, 0, 0)" fill-opacity="1.000000" />
<path d="M 129.985352 66.594238 L 129.985352 77.594238 L 129.061523 77.594238 L 129.061523 66.594238 Z " fill="rgb(0, 0, 0)" fill-opacity="1.000000" />
<path d="M 139.574219 76.020508 L 139.574219 76.933594 L 133.000000 76.933594 L 133.000000 76.020508 Z " fill="rgb(0, 0, 0)" fill-opacity="1.000000" />
<path d="M 143.985352 66.594238 L 143.985352 77.594238 L 143.061523 77.594238 L 143.061523 66.594238 Z " fill="rgb(0, 0, 0)" fill-opacity="1.000000" />
<path d="M 157.985352 66.594238 L 157.985352 77.594238 L 157.061523 77.594238 L 157.061523 66.594238 Z " fill="rgb(0, 0, 0)" fill-opacity="1.000000" />
<path d="M 167.574219 76.020508 L 167.574219 76.933594 L 161.000000 76.933594 L 161.000000 76.020508 Z " fill="rgb(0, 0, 0)" fill-opacity="1.000000" />
<path d="M 171.985352 66.594238 L 171.985352 77.594238 L 171.061523 77.594238 L 171.061523 66.594238 Z " fill="rgb(0, 0, 0)" fill-opacity="1.000000" />
<path d="M 176.573730 66.980957 L 180.795410 76.020508 L 179.774902 76.020508 L 175.547852 66.980957 Z " fill="rgb(0, 0, 0)" fill-opacity="1.000000" />
<path d="M 188.574219 76.020508 L 188.574219 76.933594 L 182.000000 76.933594 L 182.000000 76.020508 Z " fill="rgb(0, 0, 0)" fill-opacity="1.000000" />
<path d="M 195.574219 76.020508 L 195.574219 76.933594 L 189.000000 76.933594 L 189.000000 76.020508 Z " fill="rgb(0, 0, 0)" fill-opacity="1.000000" />
<path d="M 202.574219 76.020508 L 202.574219 76.933594 L 196.000000 76.933594 L 196.000000 76.020508 Z " fill="rgb(0, 0, 0)" fill-opacity="1.000000" />
<path d="M 206.985352 66.594238 L 206.985352 77.594238 L 206.061523 77.594238 L 206.061523 66.594238 Z " fill="rgb(0, 0, 0)" fill-opacity="1.000000" />
<path d="M 221.592285 66.116211 Q 220.877930 67.340820 220.526123 68.557373 Q 220.174316 69.773926 220.174316 71.009277 Q 220.174316 72.239258 220.526123 73.458496 Q 220.877930 74.677734 221.592285 75.913086 L 220.732910 75.913086 Q 219.921875 74.634766 219.524414 73.423584 Q 219.126953 72.212402 219.126953 71.009277 Q 219.126953 69.811523 219.524414 68.597656 Q 219.921875 67.383789 220.732910 66.116211 Z " fill="rgb(0, 0, 0)" fill-opacity="1.000000" />
<path d="M 230.574219 76.020508 L 230.574219 76.933594 L 224.000000 76.933594 L 224.000000 76.020508 Z " fill="rgb(0, 0, 0)" fill-opacity="1.000000" />
<path d="M 232.869141 66.116211 L 233.728516 66.116211 Q 234.539551 67.383789 234.937012 68.597656 Q 235.334473 69.811523 235.334473 71.009277 Q 235.334473 72.217773 234.937012 73.431641 Q 234.539551 74.645508 233.728516 75.913086 L 232.869141 75.913086 Q 233.583496 74.666992 233.935303 73.447754 Q 234.287109 72.228516 234.287109 71.009277 Q 234.287109 69.784668 233.935303 68.565430 Q 233.583496 67.346191 232.869141 66.116211 Z " fill="rgb(0, 0, 0)" fill-opacity="1.000000" />
<path d="M 253.573730 66.980957 L 257.795410 76.020508 L 256.774902 76.020508 L 252.547852 66.980957 Z " fill="rgb(0, 0, 0)" fill-opacity="1.000000" />
<path d="M 265.574219 76.020508 L 265.574219 76.933594 L 259.000000 76.933594 L 259.000000 76.020508 Z " fill="rgb(0, 0, 0)" fill-opacity="1.000000" />
<path d="M 272.574219 76.020508 L 272.574219 76.933594 L 266.000000 76.933594 L 266.000000 76.020508 Z " fill="rgb(0, 0, 0)" fill-opacity="1.000000" />
<path d="M 275.374023 73.061035 L 277.049805 73.061035 L 277.049805 74.484375 L 275.857422 76.799316 L 274.783203 76.804688 L 275.374023 74.484375 Z " fill="rgb(0, 0, 0)" fill-opacity="1.000000" />
<path d="M 286.574219 76.020508 L 286.574219 76.933594 L 280.000000 76.933594 L 280.000000 76.020508 Z " fill="rgb(0, 0, 0)" fill-opacity="1.000000" />
<path d="M 290.985352 66.594238 L 290.985352 77.594238 L 290.061523 77.594238 L 290.061523 66.594238 Z " fill="rgb(0, 0, 0)" fill-opacity="1.000000" />
<path d="M 300.574219 76.020508 L 300.574219 76.933594 L 294.000000 76.933594 L 294.000000 76.020508 Z " fill="rgb(0, 0, 0)" fill-opacity="1.000000" />
<path d="M 307.574219 76.020508 L 307.574219 76.933594 L 301.000000 76.933594 L 301.000000 76.020508 Z " fill="rgb(0, 0, 0)" fill-opacity="1.000000" />
<path d="M 314.574219 76.020508 L 314.574219 76.933594 L 308.000000 76.933594 L 308.000000 76.020508 Z " fill="rgb(0, 0, 0)" fill-opacity="1.000000" />
<path d="M 319.774902 66.980957 L 320.795410 66.980957 L 316.573730 76.020508 L 315.547852 76.020508 Z " fill="rgb(0, 0, 0)" fill-opacity="1.000000" />
<path d="M 323.573730 66.980957 L 327.795410 76.020508 L 326.774902 76.020508 L 322.547852 66.980957 Z " fill="rgb(0, 0, 0)" fill-opacity="1.000000" />
<path d="M 335.574219 76.020508 L 335.574219 76.933594 L 329.000000 76.933594 L 329.000000 76.020508 Z " fill="rgb(0, 0, 0)" fill-opacity="1.000000" />
<path d="M 342.574219 76.020508 L 342.574219 76.933594 L 336.000000 76.933594 L 336.000000 76.020508 Z " fill="rgb(0, 0, 0)" fill-opacity="1.000000" />
<path d="M 345.374023 73.061035 L 347.049805 73.061035 L 347.049805 74.484375 L 345.857422 76.799316 L 344.783203 76.804688 L 345.374023 74.484375 Z " fill="rgb(0, 0, 0)" fill-opacity="1.000000" />
<path d="M 356.574219 76.020508 L 356.574219 76.933594 L 350.000000 76.933594 L 350.000000 76.020508 Z " fill="rgb(0, 0, 0)" fill-opacity="1.000000" />
<path d="M 360.985352 66.594238 L 360.985352 77.594238 L 360.061523 77.594238 L 360.061523 66.594238 Z " fill="rgb(0, 0, 0)" fill-opacity="1.000000" />
<path d="M 365.573730 66.980957 L 369.795410 76.020508 L 368.774902 76.020508 L 364.547852 66.980957 Z " fill="rgb(0, 0, 0)" fill-opacity="1.000000" />
<path d="M 377.574219 76.020508 L 377.574219 76.933594 L 371.000000 76.933594 L 371.000000 76.020508 Z " fill="rgb(0, 0, 0)" fill-opacity="1.000000" />
<path d="M 384.574219 76.020508 L 384.574219 76.933594 L 378.000000 76.933594 L 378.000000 76.020508 Z " fill="rgb(0, 0, 0)" fill-opacity="1.000000" />
<path d="M 386.573730 66.980957 L 390.795410 76.020508 L 389.774902 76.020508 L 385.547852 66.980957 Z " fill="rgb(0, 0, 0)" fill-opacity="1.000000" />
<path d="M 398.574219 76.020508 L 398.574219 76.933594 L 392.000000 76.933594 L 392.000000 76.020508 Z " fill="rgb(0, 0, 0)" fill-opacity="1.000000" />
<path d="M 405.574219 76.020508 L 405.574219 76.933594 L 399.000000 76.933594 L 399.000000 76.020508 Z " fill="rgb(0, 0, 0)" fill-opacity="1.000000" />
<path d="M 412.574219 76.020508 L 412.574219 76.933594 L 406.000000 76.933594 L 406.000000 76.020508 Z " fill="rgb(0, 0, 0)" fill-opacity="1.000000" />
<path d="M 417.774902 66.980957 L 418.795410 66.980957 L 414.573730 76.020508 L 413.547852 76.020508 Z " fill="rgb(0, 0, 0)" fill-opacity="1.000000" />
<path d="M 423.985352 66.594238 L 423.985352 77.594238 L 423.061523 77.594238 L 423.061523 66.594238 Z " fill="rgb(0, 0, 0)" fill-opacity="1.000000" />
<path d="M 433.574219 76.020508 L 433.574219 76.933594 L 427.000000 76.933594 L 427.000000 76.020508 Z " fill="rgb(0, 0, 0)" fill-opacity="1.000000" />
<path d="M 437.985352 66.594238 L 437.985352 77.594238 L 437.061523 77.594238 L 437.061523 66.594238 Z " fill="rgb(0, 0, 0)" fill-opacity="1.000000" />
<path d="M 473.592285 66.116211 Q 472.877930 67.340820 472.526123 68.557373 Q 472.174316 69.773926 472.174316 71.009277 Q 472.174316 72.239258 472.526123 73.458496 Q 472.877930 74.677734 473.592285 75.913086 L 472.732910 75.913086 Q 471.921875 74.634766 471.524414 73.423584 Q 471.126953 72.212402 471.126953 71.009277 Q 471.126953 69.811523 471.524414 68.597656 Q 471.921875 67.383789 472.732910 66.116211 Z " fill="rgb(0, 0, 0)" fill-opacity="1.000000" />
<path d="M 482.574219 76.020508 L 482.574219 76.933594 L 476.000000 76.933594 L 476.000000 76.020508 Z " fill="rgb(0, 0, 0)" fill-opacity="1.000000" />
<path d="M 484.869141 66.116211 L 485.728516 66.116211 Q 486.539551 67.383789 486.937012 68.597656 Q 487.334473 69.811523 487.334473 71.009277 Q 487.334473 72.217773 486.937012 73.431641 Q 486.539551 74.645508 485.728516 75.913086 L 484.869141 75.913086 Q 485.583496 74.666992 485.935303 73.447754 Q 486.287109 72.228516 486.287109 71.009277 Q 486.287109 69.784668 485.935303 68.565430 Q 485.583496 67.346191 484.869141 66.116211 Z " fill="rgb(0, 0, 0)" fill-opacity="1.000000" />
<path d="M 500.985352 66.594238 L 500.985352 77.594238 L 500.061523 77.594238 L 500.061523 66.594238 Z " fill="rgb(0, 0, 0)" fill-opacity="1.000000" />
<path d="M 510.574219 76.020508 L 510.574219 76.933594 L 504.000000 76.933594 L 504.000000 76.020508 Z " fill="rgb(0, 0, 0)" fill-opacity="1.000000" />
<path d="M 514.985352 66.594238 L 514.985352 77.594238 L 514.061523 77.594238 L 514.061523 66.594238 Z " fill="rgb(0, 0, 0)" fill-opacity="1.000000" />
<path d="M 528.985352 66.594238 L 528.985352 77.594238 L 528.061523 77.594238 L 528.061523 66.594238 Z " fill="rgb(0, 0, 0)" fill-opacity="1.000000" />
<path d="M 538.574219 76.020508 L 538.574219 76.933594 L 532.000000 76.933594 L 532.000000 76.020508 Z " fill="rgb(0, 0, 0)" fill-opacity="1.000000" />
<path d="M 542.985352 66.594238 L 542.985352 77.594238 L 542.061523 77.594238 L 542.061523 66.594238 Z " fill="rgb(0, 0, 0)" fill-opacity="1.000000" />
<path d="M 547.573730 66.980957 L 551.795410 76.020508 L 550.774902 76.020508 L 546.547852 66.980957 Z " fill="rgb(0, 0, 0)" fill-opacity="1.000000" />
<path d="M 559.574219 76.020508 L 559.574219 76.933594 L 553.000000 76.933594 L 553.000000 76.020508 Z " fill="rgb(0, 0, 0)" fill-opacity="1.000000" />
<path d="M 566.574219 76.020508 L 566.574219 76.933594 L 560.000000 76.933594 L 560.000000 76.020508 Z " fill="rgb(0, 0, 0)" fill-opacity="1.000000" />
<path d="M 573.574219 76.020508 L 573.574219 76.933594 L 567.000000 76.933594 L 567.000000 76.020508 Z " fill="rgb(0, 0, 0)" fill-opacity="1.000000" />
<path d="M 577.985352 66.594238 L 577.985352 77.594238 L 577.061523 77.594238 L 577.061523 66.594238 Z " fill="rgb(0, 0, 0)" fill-opacity="1.000000" />
<path d="M 582.573730 66.980957 L 586.795410 76.020508 L 585.774902 76.020508 L 581.547852 66.980957 Z " fill="rgb(0, 0, 0)" fill-opacity="1.000000" />
<path d="M 594.574219 76.020508 L 594.574219 76.933594 L 588.000000 76.933594 L 588.000000 76.020508 Z " fill="rgb(0, 0, 0)" fill-opacity="1.000000" />
<path d="M 601.574219 76.020508 L 601.574219 76.933594 L 595.000000 76.933594 L 595.000000 76.020508 Z " fill="rgb(0, 0, 0)" fill-opacity="1.000000" />
<path d="M 605.985352 66.594238 L 605.985352 77.594238 L 605.061523 77.594238 L 605.061523 66.594238 Z " fill="rgb(0, 0, 0)" fill-opacity="1.000000" />
<path d="M 31.985352 14.594238 L 31.985352 25.594238 L 31.061523 25.594238 L 31.061523 14.594238 Z " fill="rgb(0, 0, 0)" fill-opacity="1.000000" />
<path d="M 31.985352 27.594238 L 31.985352 38.594238 L 31.061523 38.594238 L 31.061523 27.594238 Z " fill="rgb(0, 0, 0)" fill-opacity="1.000000" />
<path d="M 31.985352 40.631836 L 31.985352 43.978027 L 30.782227 43.978027 L 30.782227 40.631836 Z " fill="rgb(0, 0, 0)" fill-opacity="1.000000" />
<path d="M 31.985352 53.594238 L 31.985352 64.594238 L 31.061523 64.594238 L 31.061523 53.594238 Z " fill="rgb(0, 0, 0)" fill-opacity="1.000000" />
<path d="M 45.985352 53.594238 L 45.985352 64.594238 L 45.061523 64.594238 L 45.061523 53.594238 Z " fill="rgb(0, 0, 0)" fill-opacity="1.000000" />
<path d="M 59.985352 53.594238 L 59.985352 64.594238 L 59.061523 64.594238 L 59.061523 53.594238 Z " fill="rgb(0, 0, 0)" fill-opacity="1.000000" />
<path d="M 74.592285 53.116211 Q 73.877930 54.340820 73.526123 55.557373 Q 73.174316 56.773926 73.174316 58.009277 Q 73.174316 59.239258 73.526123 60.458496 Q 73.877930 61.677734 74.592285 62.913086 L 73.732910 62.913086 Q 72.921875 61.634766 72.524414 60.423584 Q 72.126953 59.212402 72.126953 58.009277 Q 72.126953 56.811523 72.524414 55.597656 Q 72.921875 54.383789 73.732910 53.116211 Z " fill="rgb(0, 0, 0)" fill-opacity="1.000000" />
<path d="M 83.574219 63.020508 L 83.574219 63.933594 L 77.000000 63.933594 L 77.000000 63.020508 Z " fill="rgb(0, 0, 0)" fill-opacity="1.000000" />
<path d="M 85.869141 53.116211 L 86.728516 53.116211 Q 87.539551 54.383789 87.937012 55.597656 Q 88.334473 56.811523 88.334473 58.009277 Q 88.334473 59.217773 87.937012 60.431641 Q 87.539551 61.645508 86.728516 62.913086 L 85.869141 62.913086 Q 86.583496 61.666992 86.935303 60.447754 Q 87.287109 59.228516 87.287109 58.009277 Q 87.287109 56.784668 86.935303 55.565430 Q 86.583496 54.346191 85.869141 53.116211 Z " fill="rgb(0, 0, 0)" fill-opacity="1.000000" />
<path d="M 101.985352 53.594238 L 101.985352 64.594238 L 101.061523 64.594238 L 101.061523 53.594238 Z " fill="rgb(0, 0, 0)" fill-opacity="1.000000" />
<path d="M 115.985352 53.594238 L 115.985352 64.594238 L 115.061523 64.594238 L 115.061523 53.594238 Z " fill="rgb(0, 0, 0)" fill-opacity="1.000000" />
<path d="M 129.985352 53.594238 L 129.985352 64.594238 L 129.061523 64.594238 L 129.061523 53.594238 Z " fill="rgb(0, 0, 0)" fill-opacity="1.000000" />
<path d="M 143.985352 53.594238 L 143.985352 64.594238 L 143.061523 64.594238 L 143.061523 53.594238 Z " fill="rgb(0, 0, 0)" fill-opacity="1.000000" />
<path d="M 157.985352 53.594238 L 157.985352 64.594238 L 157.061523 64.594238 L 157.061523 53.594238 Z " fill="rgb(0, 0, 0)" fill-opacity="1.000000" />
<path d="M 171.985352 53.594238 L 171.985352 64.594238 L 171.061523 64.594238 L 171.061523 53.594238 Z " fill="rgb(0, 0, 0)" fill-opacity="1.000000" />
<path d="M 195.574219 63.020508 L 195.574219 63.933594 L 189.000000 63.933594 L 189.000000 63.020508 Z " fill="rgb(0, 0, 0)" fill-opacity="1.000000" />
<path d="M 202.574219 63.020508 L 202.574219 63.933594 L 196.000000 63.933594 L 196.000000 63.020508 Z " fill="rgb(0, 0, 0)" fill-opacity="1.000000" />
<path d="M 207.774902 53.980957 L 208.795410 53.980957 L 204.573730 63.020508 L 203.547852 63.020508 Z " fill="rgb(0, 0, 0)" fill-opacity="1.000000" />
<path d="M 230.574219 63.020508 L 230.574219 63.933594 L 224.000000 63.933594 L 224.000000 63.020508 Z " fill="rgb(0, 0, 0)" fill-opacity="1.000000" />
<path d="M 248.985352 53.594238 L 248.985352 64.594238 L 248.061523 64.594238 L 248.061523 53.594238 Z " fill="rgb(0, 0, 0)" fill-opacity="1.000000" />
<path d="M 263.592285 53.116211 Q 262.877930 54.340820 262.526123 55.557373 Q 262.174316 56.773926 262.174316 58.009277 Q 262.174316 59.239258 262.526123 60.458496 Q 262.877930 61.677734 263.592285 62.913086 L 262.732910 62.913086 Q 261.921875 61.634766 261.524414 60.423584 Q 261.126953 59.212402 261.126953 58.009277 Q 261.126953 56.811523 261.524414 55.597656 Q 261.921875 54.383789 262.732910 53.116211 Z " fill="rgb(0, 0, 0)" fill-opacity="1.000000" />
<path d="M 272.574219 63.020508 L 272.574219 63.933594 L 266.000000 63.933594 L 266.000000 63.020508 Z " fill="rgb(0, 0, 0)" fill-opacity="1.000000" />
<path d="M 276.985352 53.594238 L 276.985352 64.594238 L 276.061523 64.594238 L 276.061523 53.594238 Z " fill="rgb(0, 0, 0)" fill-opacity="1.000000" />
<path d="M 288.573730 53.980957 L 292.795410 63.020508 L 291.774902 63.020508 L 287.547852 53.980957 Z " fill="rgb(0, 0, 0)" fill-opacity="1.000000" />
<path d="M 300.574219 63.020508 L 300.574219 63.933594 L 294.000000 63.933594 L 294.000000 63.020508 Z " fill="rgb(0, 0, 0)" fill-opacity="1.000000" />
<path d="M 307.574219 63.020508 L 307.574219 63.933594 L 301.000000 63.933594 L 301.000000 63.020508 Z " fill="rgb(0, 0, 0)" fill-opacity="1.000000" />
<path d="M 316.573730 53.980957 L 320.795410 63.020508 L 319.774902 63.020508 L 315.547852 53.980957 Z " fill="rgb(0, 0, 0)" fill-opacity="1.000000" />
<path d="M 333.592285 53.116211 Q 332.877930 54.340820 332.526123 55.557373 Q 332.174316 56.773926 332.174316 58.009277 Q 332.174316 59.239258 332.526123 60.458496 Q 332.877930 61.677734 333.592285 62.913086 L 332.732910 62.913086 Q 331.921875 61.634766 331.524414 60.423584 Q 331.126953 59.212402 331.126953 58.009277 Q 331.126953 56.811523 331.524414 55.597656 Q 331.921875 54.383789 332.732910 53.116211 Z " fill="rgb(0, 0, 0)" fill-opacity="1.000000" />
<path d="M 342.574219 63.020508 L 342.574219 63.933594 L 336.000000 63.933594 L 336.000000 63.020508 Z " fill="rgb(0, 0, 0)" fill-opacity="1.000000" />
<path d="M 346.985352 53.594238 L 346.985352 64.594238 L 346.061523 64.594238 L 346.061523 53.594238 Z " fill="rgb(0, 0, 0)" fill-opacity="1.000000" />
<path d="M 360.985352 53.594238 L 360.985352 64.594238 L 360.061523 64.594238 L 360.061523 53.594238 Z " fill="rgb(0, 0, 0)" fill-opacity="1.000000" />
<path d="M 374.985352 53.594238 L 374.985352 64.594238 L 374.061523 64.594238 L 374.061523 53.594238 Z " fill="rgb(0, 0, 0)" fill-opacity="1.000000" />
<path d="M 381.985352 53.594238 L 381.985352 64.594238 L 381.061523 64.594238 L 381.061523 53.594238 Z " fill="rgb(0, 0, 0)" fill-opacity="1.000000" />
<path d="M 396.592285 53.116211 Q 395.877930 54.340820 395.526123 55.557373 Q 395.174316 56.773926 395.174316 58.009277 Q 395.174316 59.239258 395.526123 60.458496 Q 395.877930 61.677734 396.592285 62.913086 L 395.732910 62.913086 Q 394.921875 61.634766 394.524414 60.423584 Q 394.126953 59.212402 394.126953 58.009277 Q 394.126953 56.811523 394.524414 55.597656 Q 394.921875 54.383789 395.732910 53.116211 Z " fill="rgb(0, 0, 0)" fill-opacity="1.000000" />
<path d="M 405.574219 63.020508 L 405.574219 63.933594 L 399.000000 63.933594 L 399.000000 63.020508 Z " fill="rgb(0, 0, 0)" fill-opacity="1.000000" />
<path d="M 407.869141 53.116211 L 408.728516 53.116211 Q 409.539551 54.383789 409.937012 55.597656 Q 410.334473 56.811523 410.334473 58.009277 Q 410.334473 59.217773 409.937012 60.431641 Q 409.539551 61.645508 408.728516 62.913086 L 407.869141 62.913086 Q 408.583496 61.666992 408.935303 60.447754 Q 409.287109 59.228516 409.287109 58.009277 Q 409.287109 56.784668 408.935303 55.565430 Q 408.583496 54.346191 407.869141 53.116211 Z " fill="rgb(0, 0, 0)" fill-opacity="1.000000" />
<path d="M 423.985352 53.594238 L 423.985352 64.594238 L 423.061523 64.594238 L 423.061523 53.594238 Z " fill="rgb(0, 0, 0)" fill-opacity="1.000000" />
<path d="M 437.985352 53.594238 L 437.985352 64.594238 L 437.061523 64.594238 L 437.061523 53.594238 Z " fill="rgb(0, 0, 0)" fill-opacity="1.000000" />
<path d="M 482.574219 63.020508 L 482.574219 63.933594 L 476.000000 63.933594 L 476.000000 63.020508 Z " fill="rgb(0, 0, 0)" fill-opacity="1.000000" />
<path d="M 500.985352 53.594238 L 500.985352 64.594238 L 500.061523 64.594238 L 500.061523 53.594238 Z " fill="rgb(0, 0, 0)" fill-opacity="1.000000" />
<path d="M 514.985352 53.594238 L 514.985352 64.594238 L 514.061523 64.594238 L 514.061523 53.594238 Z " fill="rgb(0, 0, 0)" fill-opacity="1.000000" />
<path d="M 528.985352 53.594238 L 528.985352 64.594238 L 528.061523 64.594238 L 528.061523 53.594238 Z " fill="rgb(0, 0, 0)" fill-opacity="1.000000" />
<path d="M 542.985352 53.594238 L 542.985352 64.594238 L 542.061523 64.594238 L 542.061523 53.594238 Z " fill="rgb(0, 0, 0)" fill-opacity="1.000000" />
<path d="M 566.574219 63.020508 L 566.574219 63.933594 L 560.000000 63.933594 L 560.000000 63.020508 Z " fill="rgb(0, 0, 0)" fill-opacity="1.000000" />
<path d="M 573.574219 63.020508 L 573.574219 63.933594 L 567.000000 63.933594 L 567.000000 63.020508 Z " fill="rgb(0, 0, 0)" fill-opacity="1.000000" />
<path d="M 578.774902 53.980957 L 579.795410 53.980957 L 575.573730 63.020508 L 574.547852 63.020508 Z " fill="rgb(0, 0, 0)" fill-opacity="1.000000" />
<path d="M 591.985352 53.594238 L 591.985352 64.594238 L 591.061523 64.594238 L 591.061523 53.594238 Z " fill="rgb(0, 0, 0)" fill-opacity="1.000000" />
<path d="M 601.574219 63.020508 L 601.574219 63.933594 L 595.000000 63.933594 L 595.000000 63.020508 Z " fill="rgb(0, 0, 0)" fill-opacity="1.000000" />
<path d="M 41.574219 50.020508 L 41.574219 50.933594 L 35.000000 50.933594 L 35.000000 50.020508 Z " fill="rgb(0, 0, 0)" fill-opacity="1.000000" />
<path d="M 50.573730 40.980957 L 54.795410 50.020508 L 53.774902 50.020508 L 49.547852 40.980957 Z " fill="rgb(0, 0, 0)" fill-opacity="1.000000" />
<path d="M 67.774902 40.980957 L 68.795410 40.980957 L 64.573730 50.020508 L 63.547852 50.020508 Z " fill="rgb(0, 0, 0)" fill-opacity="1.000000" />
<path d="M 83.574219 50.020508 L 83.574219 50.933594 L 77.000000 50.933594 L 77.000000 50.020508 Z " fill="rgb(0, 0, 0)" fill-opacity="1.000000" />
<path d="M 92.573730 40.980957 L 96.795410 50.020508 L 95.774902 50.020508 L 91.547852 40.980957 Z " fill="rgb(0, 0, 0)" fill-opacity="1.000000" />
<path d="M 101.985352 40.594238 L 101.985352 51.594238 L 101.061523 51.594238 L 101.061523 40.594238 Z " fill="rgb(0, 0, 0)" fill-opacity="1.000000" />
<path d="M 115.985352 40.631836 L 115.985352 43.978027 L 114.782227 43.978027 L 114.782227 40.631836 Z " fill="rgb(0, 0, 0)" fill-opacity="1.000000" />
<path d="M 125.574219 50.020508 L 125.574219 50.933594 L 119.000000 50.933594 L 119.000000 50.020508 Z " fill="rgb(0, 0, 0)" fill-opacity="1.000000" />
<path d="M 135.562012 40.202148 L 137.071289 42.221680 L 136.244141 42.221680 L 134.498535 40.202148 Z " fill="rgb(0, 0, 0)" fill-opacity="1.000000" />
<path d="M 153.574219 50.020508 L 153.574219 50.933594 L 147.000000 50.933594 L 147.000000 50.020508 Z " fill="rgb(0, 0, 0)" fill-opacity="1.000000" />
<path d="M 162.573730 40.980957 L 166.795410 50.020508 L 165.774902 50.020508 L 161.547852 40.980957 Z " fill="rgb(0, 0, 0)" fill-opacity="1.000000" />
<path d="M 179.774902 40.980957 L 180.795410 40.980957 L 176.573730 50.020508 L 175.547852 50.020508 Z " fill="rgb(0, 0, 0)" fill-opacity="1.000000" />
<path d="M 195.574219 50.020508 L 195.574219 50.933594 L 189.000000 50.933594 L 189.000000 50.020508 Z " fill="rgb(0, 0, 0)" fill-opacity="1.000000" />
<path d="M 204.573730 40.980957 L 208.795410 50.020508 L 207.774902 50.020508 L 203.547852 40.980957 Z " fill="rgb(0, 0, 0)" fill-opacity="1.000000" />
<path d="M 256.774902 40.980957 L 257.795410 40.980957 L 253.573730 50.020508 L 252.547852 50.020508 Z " fill="rgb(0, 0, 0)" fill-opacity="1.000000" />
<path d="M 272.574219 50.020508 L 272.574219 50.933594 L 266.000000 50.933594 L 266.000000 50.020508 Z " fill="rgb(0, 0, 0)" fill-opacity="1.000000" />
<path d="M 275.562012 40.202148 L 277.071289 42.221680 L 276.244141 42.221680 L 274.498535 40.202148 Z " fill="rgb(0, 0, 0)" fill-opacity="1.000000" />
<path d="M 291.774902 40.980957 L 292.795410 40.980957 L 288.573730 50.020508 L 287.547852 50.020508 Z " fill="rgb(0, 0, 0)" fill-opacity="1.000000" />
<path d="M 307.574219 50.020508 L 307.574219 50.933594 L 301.000000 50.933594 L 301.000000 50.020508 Z " fill="rgb(0, 0, 0)" fill-opacity="1.000000" />
<path d="M 314.574219 50.020508 L 314.574219 50.933594 L 308.000000 50.933594 L 308.000000 50.020508 Z " fill="rgb(0, 0, 0)" fill-opacity="1.000000" />
<path d="M 318.985352 40.594238 L 318.985352 51.594238 L 318.061523 51.594238 L 318.061523 40.594238 Z " fill="rgb(0, 0, 0)" fill-opacity="1.000000" />
<path d="M 326.774902 40.980957 L 327.795410 40.980957 L 323.573730 50.020508 L 322.547852 50.020508 Z " fill="rgb(0, 0, 0)" fill-opacity="1.000000" />
<path d="M 342.574219 50.020508 L 342.574219 50.933594 L 336.000000 50.933594 L 336.000000 50.020508 Z " fill="rgb(0, 0, 0)" fill-opacity="1.000000" />
<path d="M 345.562012 40.202148 L 347.071289 42.221680 L 346.244141 42.221680 L 344.498535 40.202148 Z " fill="rgb(0, 0, 0)" fill-opacity="1.000000" />
<path d="M 360.985352 40.594238 L 360.985352 51.594238 L 360.061523 51.594238 L 360.061523 40.594238 Z " fill="rgb(0, 0, 0)" fill-opacity="1.000000" />
<path d="M 377.574219 50.020508 L 377.574219 50.933594 L 371.000000 50.933594 L 371.000000 50.020508 Z " fill="rgb(0, 0, 0)" fill-opacity="1.000000" />
<path d="M 384.574219 50.020508 L 384.574219 50.933594 L 378.000000 50.933594 L 378.000000 50.020508 Z " fill="rgb(0, 0, 0)" fill-opacity="1.000000" />
<path d="M 389.774902 40.980957 L 390.795410 40.980957 L 386.573730 50.020508 L 385.547852 50.020508 Z " fill="rgb(0, 0, 0)" fill-opacity="1.000000" />
<path d="M 405.574219 50.020508 L 405.574219 50.933594 L 399.000000 50.933594 L 399.000000 50.020508 Z " fill="rgb(0, 0, 0)" fill-opacity="1.000000" />
<path d="M 414.573730 40.980957 L 418.795410 50.020508 L 417.774902 50.020508 L 413.547852 40.980957 Z " fill="rgb(0, 0, 0)" fill-opacity="1.000000" />
<path d="M 423.985352 40.594238 L 423.985352 51.594238 L 423.061523 51.594238 L 423.061523 40.594238 Z " fill="rgb(0, 0, 0)" fill-opacity="1.000000" />
<path d="M 437.985352 40.631836 L 437.985352 43.978027 L 436.782227 43.978027 L 436.782227 40.631836 Z " fill="rgb(0, 0, 0)" fill-opacity="1.000000" />
<path d="M 447.574219 50.020508 L 447.574219 50.933594 L 441.000000 50.933594 L 441.000000 50.020508 Z " fill="rgb(0, 0, 0)" fill-opacity="1.000000" />
<path d="M 454.574219 50.020508 L 454.574219 50.933594 L 448.000000 50.933594 L 448.000000 50.020508 Z " fill="rgb(0, 0, 0)" fill-opacity="1.000000" />
<path d="M 458.985352 40.594238 L 458.985352 51.594238 L 458.061523 51.594238 L 458.061523 40.594238 Z " fill="rgb(0, 0, 0)" fill-opacity="1.000000" />
<path d="M 500.985352 40.594238 L 500.985352 51.594238 L 500.061523 51.594238 L 500.061523 40.594238 Z " fill="rgb(0, 0, 0)" fill-opacity="1.000000" />
<path d="M 514.985352 40.631836 L 514.985352 43.978027 L 513.782227 43.978027 L 513.782227 40.631836 Z " fill="rgb(0, 0, 0)" fill-opacity="1.000000" />
<path d="M 524.574219 50.020508 L 524.574219 50.933594 L 518.000000 50.933594 L 518.000000 50.020508 Z " fill="rgb(0, 0, 0)" fill-opacity="1.000000" />
<path d="M 533.573730 40.980957 L 537.795410 50.020508 L 536.774902 50.020508 L 532.547852 40.980957 Z " fill="rgb(0, 0, 0)" fill-opacity="1.000000" />
<path d="M 550.774902 40.980957 L 551.795410 40.980957 L 547.573730 50.020508 L 546.547852 50.020508 Z " fill="rgb(0, 0, 0)" fill-opacity="1.000000" />
<path d="M 566.574219 50.020508 L 566.574219 50.933594 L 560.000000 50.933594 L 560.000000 50.020508 Z " fill="rgb(0, 0, 0)" fill-opacity="1.000000" />
<path d="M 575.573730 40.980957 L 579.795410 50.020508 L 578.774902 50.020508 L 574.547852 40.980957 Z " fill="rgb(0, 0, 0)" fill-opacity="1.000000" />
<path d="M 594.574219 50.020508 L 594.574219 50.933594 L 588.000000 50.933594 L 588.000000 50.020508 Z " fill="rgb(0, 0, 0)" fill-opacity="1.000000" />
<path d="M 601.574219 50.020508 L 601.574219 50.933594 L 595.000000 50.933594 L 595.000000 50.020508 Z " fill="rgb(0, 0, 0)" fill-opacity="1.000000" />
<path d="M 605.985352 40.594238 L 605.985352 51.594238 L 605.061523 51.594238 L 605.061523 40.594238 Z " fill="rgb(0, 0, 0)" fill-opacity="1.000000" />
<path d="M 41.574219 37.020508 L 41.574219 37.933594 L 35.000000 37.933594 L 35.000000 37.020508 Z " fill="rgb(0, 0, 0)" fill-opacity="1.000000" />
<path d="M 48.574219 37.020508 L 48.574219 37.933594 L 42.000000 37.933594 L 42.000000 37.020508 Z " fill="rgb(0, 0, 0)" fill-opacity="1.000000" />
<path d="M 76.574219 37.020508 L 76.574219 37.933594 L 70.000000 37.933594 L 70.000000 37.020508 Z " fill="rgb(0, 0, 0)" fill-opacity="1.000000" />
<path d="M 83.574219 37.020508 L 83.574219 37.933594 L 77.000000 37.933594 L 77.000000 37.020508 Z " fill="rgb(0, 0, 0)" fill-opacity="1.000000" />
<path d="M 90.574219 37.020508 L 90.574219 37.933594 L 84.000000 37.933594 L 84.000000 37.020508 Z " fill="rgb(0, 0, 0)" fill-opacity="1.000000" />
<path d="M 111.574219 37.020508 L 111.574219 37.933594 L 105.000000 37.933594 L 105.000000 37.020508 Z " fill="rgb(0, 0, 0)" fill-opacity="1.000000" />
<path d="M 125.574219 37.020508 L 125.574219 37.933594 L 119.000000 37.933594 L 119.000000 37.020508 Z " fill="rgb(0, 0, 0)" fill-opacity="1.000000" />
<path d="M 132.574219 37.020508 L 132.574219 37.933594 L 126.000000 37.933594 L 126.000000 37.020508 Z " fill="rgb(0, 0, 0)" fill-opacity="1.000000" />
<path d="M 146.574219 37.020508 L 146.574219 37.933594 L 140.000000 37.933594 L 140.000000 37.020508 Z " fill="rgb(0, 0, 0)" fill-opacity="1.000000" />
<path d="M 153.574219 37.020508 L 153.574219 37.933594 L 147.000000 37.933594 L 147.000000 37.020508 Z " fill="rgb(0, 0, 0)" fill-opacity="1.000000" />
<path d="M 160.574219 37.020508 L 160.574219 37.933594 L 154.000000 37.933594 L 154.000000 37.020508 Z " fill="rgb(0, 0, 0)" fill-opacity="1.000000" />
<path d="M 188.574219 37.020508 L 188.574219 37.933594 L 182.000000 37.933594 L 182.000000 37.020508 Z " fill="rgb(0, 0, 0)" fill-opacity="1.000000" />
<path d="M 195.574219 37.020508 L 195.574219 37.933594 L 189.000000 37.933594 L 189.000000 37.020508 Z " fill="rgb(0, 0, 0)" fill-opacity="1.000000" />
<path d="M 202.574219 37.020508 L 202.574219 37.933594 L 196.000000 37.933594 L 196.000000 37.020508 Z " fill="rgb(0, 0, 0)" fill-opacity="1.000000" />
<path d="M 265.574219 37.020508 L 265.574219 37.933594 L 259.000000 37.933594 L 259.000000 37.020508 Z " fill="rgb(0, 0, 0)" fill-opacity="1.000000" />
<path d="M 272.574219 37.020508 L 272.574219 37.933594 L 266.000000 37.933594 L 266.000000 37.020508 Z " fill="rgb(0, 0, 0)" fill-opacity="1.000000" />
<path d="M 286.574219 37.020508 L 286.574219 37.933594 L 280.000000 37.933594 L 280.000000 37.020508 Z " fill="rgb(0, 0, 0)" fill-opacity="1.000000" />
<path d="M 300.574219 37.020508 L 300.574219 37.933594 L 294.000000 37.933594 L 294.000000 37.020508 Z " fill="rgb(0, 0, 0)" fill-opacity="1.000000" />
<path d="M 307.574219 37.020508 L 307.574219 37.933594 L 301.000000 37.933594 L 301.000000 37.020508 Z " fill="rgb(0, 0, 0)" fill-opacity="1.000000" />
<path d="M 314.574219 37.020508 L 314.574219 37.933594 L 308.000000 37.933594 L 308.000000 37.020508 Z " fill="rgb(0, 0, 0)" fill-opacity="1.000000" />
<path d="M 335.574219 37.020508 L 335.574219 37.933594 L 329.000000 37.933594 L 329.000000 37.020508 Z " fill="rgb(0, 0, 0)" fill-opacity="1.000000" />
<path d="M 342.574219 37.020508 L 342.574219 37.933594 L 336.000000 37.933594 L 336.000000 37.020508 Z " fill="rgb(0, 0, 0)" fill-opacity="1.000000" />
<path d="M 356.574219 37.020508 L 356.574219 37.933594 L 350.000000 37.933594 L 350.000000 37.020508 Z " fill="rgb(0, 0, 0)" fill-opacity="1.000000" />
<path d="M 360.985352 27.594238 L 360.985352 38.594238 L 360.061523 38.594238 L 360.061523 27.594238 Z " fill="rgb(0, 0, 0)" fill-opacity="1.000000" />
<path d="M 374.985352 27.594238 L 374.985352 38.594238 L 374.061523 38.594238 L 374.061523 27.594238 Z " fill="rgb(0, 0, 0)" fill-opacity="1.000000" />
<path d="M 384.574219 37.020508 L 384.574219 37.933594 L 378.000000 37.933594 L 378.000000 37.020508 Z " fill="rgb(0, 0, 0)" fill-opacity="1.000000" />
<path d="M 398.574219 37.020508 L 398.574219 37.933594 L 392.000000 37.933594 L 392.000000 37.020508 Z " fill="rgb(0, 0, 0)" fill-opacity="1.000000" />
<path d="M 405.574219 37.020508 L 405.574219 37.933594 L 399.000000 37.933594 L 399.000000 37.020508 Z " fill="rgb(0, 0, 0)" fill-opacity="1.000000" />
<path d="M 412.574219 37.020508 L 412.574219 37.933594 L 406.000000 37.933594 L 406.000000 37.020508 Z " fill="rgb(0, 0, 0)" fill-opacity="1.000000" />
<path d="M 433.574219 37.020508 L 433.574219 37.933594 L 427.000000 37.933594 L 427.000000 37.020508 Z " fill="rgb(0, 0, 0)" fill-opacity="1.000000" />
<path d="M 447.574219 37.020508 L 447.574219 37.933594 L 441.000000 37.933594 L 441.000000 37.020508 Z " fill="rgb(0, 0, 0)" fill-opacity="1.000000" />
<path d="M 454.574219 37.020508 L 454.574219 37.933594 L 448.000000 37.933594 L 448.000000 37.020508 Z " fill="rgb(0, 0, 0)" fill-opacity="1.000000" />
<path d="M 510.574219 37.020508 L 510.574219 37.933594 L 504.000000 37.933594 L 504.000000 37.020508 Z " fill="rgb(0, 0, 0)" fill-opacity="1.000000" />
<path d="M 524.574219 37.020508 L 524.574219 37.933594 L 518.000000 37.933594 L 518.000000 37.020508 Z " fill="rgb(0, 0, 0)" fill-opacity="1.000000" />
<path d="M 531.574219 37.020508 L 531.574219 37.933594 L 525.000000 37.933594 L 525.000000 37.020508 Z " fill="rgb(0, 0, 0)" fill-opacity="1.000000" />
<path d="M 559.574219 37.020508 L 559.574219 37.933594 L 553.000000 37.933594 L 553.000000 37.020508 Z " fill="rgb(0, 0, 0)" fill-opacity="1.000000" />
<path d="M 566.574219 37.020508 L 566.574219 37.933594 L 560.000000 37.933594 L 560.000000 37.020508 Z " fill="rgb(0, 0, 0)" fill-opacity="1.000000" />
<path d="M 573.574219 37.020508 L 573.574219 37.933594 L 567.000000 37.933594 L 567.000000 37.020508 Z " fill="rgb(0, 0, 0)" fill-opacity="1.000000" />
<path d="M 577.985352 27.594238 L 577.985352 38.594238 L 577.061523 38.594238 L 577.061523 27.594238 Z " fill="rgb(0, 0, 0)" fill-opacity="1.000000" />
<path d="M 591.985352 27.594238 L 591.985352 38.594238 L 591.061523 38.594238 L 591.061523 27.594238 Z " fill="rgb(0, 0, 0)" fill-opacity="1.000000" />
<path d="M 601.574219 37.020508 L 601.574219 37.933594 L 595.000000 37.933594 L 595.000000 37.020508 Z " fill="rgb(0, 0, 0)" fill-opacity="1.000000" />
<path d="M 360.985352 14.594238 L 360.985352 25.594238 L 360.061523 25.594238 L 360.061523 14.594238 Z " fill="rgb(0, 0, 0)" fill-opacity="1.000000" />
<path d="M 374.985352 14.594238 L 374.985352 25.594238 L 374.061523 25.594238 L 374.061523 14.594238 Z " fill="rgb(0, 0, 0)" fill-opacity="1.000000" />
<path d="M 577.985352 14.594238 L 577.985352 25.594238 L 577.061523 25.594238 L 577.061523 14.594238 Z " fill="rgb(0, 0, 0)" fill-opacity="1.000000" />
<path d="M 591.985352 14.594238 L 591.985352 25.594238 L 591.061523 25.594238 L 591.061523 14.594238 Z " fill="rgb(0, 0, 0)" fill-opacity="1.000000" />
<path d="M 27.574219 11.020508 L 27.574219 11.933594 L 21.000000 11.933594 L 21.000000 11.020508 Z " fill="rgb(0, 0, 0)" fill-opacity="1.000000" />
<path d="M 370.574219 11.020508 L 370.574219 11.933594 L 364.000000 11.933594 L 364.000000 11.020508 Z " fill="rgb(0, 0, 0)" fill-opacity="1.000000" />
<path d="M 587.574219 11.020508 L 587.574219 11.933594 L 581.000000 11.933594 L 581.000000 11.020508 Z " fill="rgb(0, 0, 0)" fill-opacity="1.000000" />
</svg>