<svg xmlns="http://www.w3.org/2000/svg" version="1.1" width="624" height="92">
<path d="M 13.574219 37.020508 L 13.574219 37.933594 L 7.000000 37.933594 L 7.000000 37.020508 Z " fill="rgb(255, 255, 255)" fill-opacity="1.000000" />
<path d="M 20.574219 37.020508 L 20.574219 37.933594 L 14.000000 37.933594 L 14.000000 37.020508 Z " fill="rgb(255, 255, 255)" fill-opacity="1.000000" />
<path d="M 8.573730 40.980957 L 12.795410 50.020508 L 11.774902 50.020508 L 7.547852 40.980957 Z " fill="rgb(255, 255, 255)" fill-opacity="1.000000" />
<path d="M 15.573730 53.980957 L 19.795410 63.020508 L 18.774902 63.020508 L 14.547852 53.980957 Z " fill="rgb(255, 255, 255)" fill-opacity="1.000000" />
<path d="M 22.573730 66.980957 L 26.795410 76.020508 L 25.774902 76.020508 L 21.547852 66.980957 Z " fill="rgb(255, 255, 255)" fill-opacity="1.000000" />
<path d="M 34.574219 76.020508 L 34.574219 76.933594 L 28.000000 76.933594 L 28.000000 76.020508 Z " fill="rgb(255, 255, 255)" fill-opacity="1.000000" />
<path d="M 39.774902 66.980957 L 40.795410 66.980957 L 36.573730 76.020508 L 35.547852 76.020508 Z " fill="rgb(255, 255, 255)" fill-opacity="1.000000" />
<path d="M 43.573730 66.980957 L 47.795410 76.020508 L 46.774902 76.020508 L 42.547852 66.980957 Z " fill="rgb(255, 255, 255)" fill-opacity="1.000000" />
<path d="M 55.574219 76.020508 L 55.574219 76.933594 L 49.000000 76.933594 L 49.000000 76.020508 Z " fill="rgb(255, 255, 255)" fill-opacity="1.000000" />
<path d="M 60.774902 66.980957 L 61.795410 66.980957 L 57.573730 76.020508 L 56.547852 76.020508 Z " fill="rgb(255, 255, 255)" fill-opacity="1.000000" />
<path d="M 92.573730 66.980957 L 96.795410 76.020508 L 95.774902 76.020508 L 91.547852 66.980957 Z " fill="rgb(255, 255, 255)" fill-opacity="1.000000" />
<path d="M 104.574219 76.020508 L 104.574219 76.933594 L 98.000000 76.933594 L 98.000000 76.020508 Z " fill="rgb(255, 255, 255)" fill-opacity="1.000000" />
<path d="M 109.774902 66.980957 L 110.795410 66.980957 L 106.573730 76.020508 L 105.547852 76.020508 Z " fill="rgb(255, 255, 255)" fill-opacity="1.000000" />
<path d="M 113.573730 66.980957 L 117.795410 76.020508 L 116.774902 76.020508 L 112.547852 66.980957 Z " fill="rgb(255, 255, 255)" fill-opacity="1.000000" />
<path d="M 125.574219 76.020508 L 125.574219 76.933594 L 119.000000 76.933594 L 119.000000 76.020508 Z " fill="rgb(255, 255, 255)" fill-opacity="1.000000" />
<path d="M 130.774902 66.980957 L 131.795410 66.980957 L 127.573730 76.020508 L 126.547852 76.020508 Z " fill="rgb(255, 255, 255)" fill-opacity="1.000000" />
<path d="M 162.573730 66.980957 L 166.795410 76.020508 L 165.774902 76.020508 L 161.547852 66.980957 Z " fill="rgb(255, 255, 255)" fill-opacity="1.000000" />
<path d="M 174.574219 76.020508 L 174.574219 76.933594 L 168.000000 76.933594 L 168.000000 76.020508 Z " fill="rgb(255, 255, 255)" fill-opacity="1.000000" />
<path d="M 179.774902 66.980957 L 180.795410 66.980957 L 176.573730 76.020508 L 175.547852 76.020508 Z " fill="rgb(255, 255, 255)" fill-opacity="1.000000" />
<path d="M 183.573730 66.980957 L 187.795410 76.020508 L 186.774902 76.020508 L 182.547852 66.980957 Z " fill="rgb(255, 255, 255)" fill-opacity="1.000000" />
<path d="M 195.574219 76.020508 L 195.574219 76.933594 L 189.000000 76.933594 L 189.000000 76.020508 Z " fill="rgb(255, 255, 255)" fill-opacity="1.000000" />
<path d="M 200.774902 66.980957 L 201.795410 66.980957 L 197.573730 76.020508 L 196.547852 76.020508 Z " fill="rgb(255, 255, 255)" fill-opacity="1.000000" />
<path d="M 228.592285 66.116211 Q 227.877930 67.340820 227.526123 68.557373 Q 227.174316 69.773926 227.174316 71.009277 Q 227.174316 72.239258 227.526123 73.458496 Q 227.877930 74.677734 228.592285 75.913086 L 227.732910 75.913086 Q 226.921875 74.634766 226.524414 73.423584 Q 226.126953 72.212402 226.126953 71.009277 Q 226.126953 69.811523 226.524414 68.597656 Q 226.921875 67.383789 227.732910 66.116211 Z " fill="rgb(255, 255, 255)" fill-opacity="1.000000" />
<path d="M 237.574219 76.020508 L 237.574219 76.933594 L 231.000000 76.933594 L 231.000000 76.020508 Z " fill="rgb(255, 255, 255)" fill-opacity="1.000000" />
<path d="M 239.869141 66.116211 L 240.728516 66.116211 Q 241.539551 67.383789 241.937012 68.597656 Q 242.334473 69.811523 242.334473 71.009277 Q 242.334473 72.217773 241.937012 73.431641 Q 241.539551 74.645508 240.728516 75.913086 L 239.869141 75.913086 Q 240.583496 74.666992 240.935303 73.447754 Q 241.287109 72.228516 241.287109 71.009277 Q 241.287109 69.784668 240.935303 68.565430 Q 240.583496 67.346191 239.869141 66.116211 Z " fill="rgb(255, 255, 255)" fill-opacity="1.000000" />
<path d="M 260.573730 66.980957 L 264.795410 76.020508 L 263.774902 76.020508 L 259.547852 66.980957 Z " fill="rgb(255, 255, 255)" fill-opacity="1.000000" />
<path d="M 272.574219 76.020508 L 272.574219 76.933594 L 266.000000 76.933594 L 266.000000 76.020508 Z " fill="rgb(255, 255, 255)" fill-opacity="1.000000" />
<path d="M 279.574219 76.020508 L 279.574219 76.933594 L 273.000000 76.933594 L 273.000000 76.020508 Z " fill="rgb(255, 255, 255)" fill-opacity="1.000000" />
<path d="M 282.374023 73.061035 L 284.049805 73.061035 L 284.049805 74.484375 L 282.857422 76.799316 L 281.783203 76.804688 L 282.374023 74.484375 Z " fill="rgb(255, 255, 255)" fill-opacity="1.000000" />
<path d="M 293.574219 76.020508 L 293.574219 76.933594 L 287.000000 76.933594 L 287.000000 76.020508 Z " fill="rgb(255, 255, 255)" fill-opacity="1.000000" />
<path d="M 297.985352 66.594238 L 297.985352 77.594238 L 297.061523 77.594238 L 297.061523 66.594238 Z " fill="rgb(255, 255, 255)" fill-opacity="1.000000" />
<path d="M 307.574219 76.020508 L 307.574219 76.933594 L 301.000000 76.933594 L 301.000000 76.020508 Z " fill="rgb(255, 255, 255)" fill-opacity="1.000000" />
<path d="M 314.574219 76.020508 L 314.574219 76.933594 L 308.000000 76.933594 L 308.000000 76.020508 Z " fill="rgb(255, 255, 255)" fill-opacity="1.000000" />
<path d="M 321.574219 76.020508 L 321.574219 76.933594 L 315.000000 76.933594 L 315.000000 76.020508 Z " fill="rgb(255, 255, 255)" fill-opacity="1.000000" />
<path d="M 326.774902 66.980957 L 327.795410 66.980957 L 323.573730 76.020508 L 322.547852 76.020508 Z " fill="rgb(255, 255, 255)" fill-opacity="1.000000" />
<path d="M 330.573730 66.980957 L 334.795410 76.020508 L 333.774902 76.020508 L 329.547852 66.980957 Z " fill="rgb(255, 255, 255)" fill-opacity="1.000000" />
<path d="M 342.574219 76.020508 L 342.574219 76.933594 L 336.000000 76.933594 L 336.000000 76.020508 Z " fill="rgb(255, 255, 255)" fill-opacity="1.000000" />
<path d="M 349.574219 76.020508 L 349.574219 76.933594 L 343.000000 76.933594 L 343.000000 76.020508 Z " fill="rgb(255, 255, 255)" fill-opacity="1.000000" />
<path d="M 352.374023 73.061035 L 354.049805 73.061035 L 354.049805 74.484375 L 352.857422 76.799316 L 351.783203 76.804688 L 352.374023 74.484375 Z " fill="rgb(255, 255, 255)" fill-opacity="1.000000" />
<path d="M 363.574219 76.020508 L 363.574219 76.933594 L 357.000000 76.933594 L 357.000000 76.020508 Z " fill="rgb(255, 255, 255)" fill-opacity="1.000000" />
<path d="M 367.985352 66.594238 L 367.985352 77.594238 L 367.061523 77.594238 L 367.061523 66.594238 Z " fill="rgb(255, 255, 255)" fill-opacity="1.000000" />
<path d="M 372.573730 66.980957 L 376.795410 76.020508 L 375.774902 76.020508 L 371.547852 66.980957 Z " fill="rgb(255, 255, 255)" fill-opacity="1.000000" />
<path d="M 384.574219 76.020508 L 384.574219 76.933594 L 378.000000 76.933594 L 378.000000 76.020508 Z " fill="rgb(255, 255, 255)" fill-opacity="1.000000" />
<path d="M 391.574219 76.020508 L 391.574219 76.933594 L 385.000000 76.933594 L 385.000000 76.020508 Z " fill="rgb(255, 255, 255)" fill-opacity="1.000000" />
<path d="M 393.573730 66.980957 L 397.795410 76.020508 L 396.774902 76.020508 L 392.547852 66.980957 Z " fill="rgb(255, 255, 255)" fill-opacity="1.000000" />
<path d="M 405.574219 76.020508 L 405.574219 76.933594 L 399.000000 76.933594 L 399.000000 76.020508 Z " fill="rgb(255, 255, 255)" fill-opacity="1.000000" />
<path d="M 412.574219 76.020508 L 412.574219 76.933594 L 406.000000 76.933594 L 406.000000 76.020508 Z " fill="rgb(255, 255, 255)" fill-opacity="1.000000" />
<path d="M 419.574219 76.020508 L 419.574219 76.933594 L 413.000000 76.933594 L 413.000000 76.020508 Z " fill="rgb(255, 255, 255)" fill-opacity="1.000000" />
<path d="M 424.774902 66.980957 L 425.795410 66.980957 L 421.573730 76.020508 L 420.547852 76.020508 Z " fill="rgb(255, 255, 255)" fill-opacity="1.000000" />
<path d="M 430.985352 66.594238 L 430.985352 77.594238 L 430.061523 77.594238 L 430.061523 66.594238 Z " fill="rgb(255, 255, 255)" fill-opacity="1.000000" />
<path d="M 440.574219 76.020508 L 440.574219 76.933594 L 434.000000 76.933594 L 434.000000 76.020508 Z " fill="rgb(255, 255, 255)" fill-opacity="1.000000" />
<path d="M 444.985352 66.594238 L 444.985352 77.594238 L 444.061523 77.594238 L 444.061523 66.594238 Z " fill="rgb(255, 255, 255)" fill-opacity="1.000000" />
<path d="M 480.592285 66.116211 Q 479.877930 67.340820 479.526123 68.557373 Q 479.174316 69.773926 479.174316 71.009277 Q 479.174316 72.239258 479.526123 73.458496 Q 479.877930 74.677734 480.592285 75.913086 L 479.732910 75.913086 Q 478.921875 74.634766 478.524414 73.423584 Q 478.126953 72.212402 478.126953 71.009277 Q 478.126953 69.811523 478.524414 68.597656 Q 478.921875 67.383789 479.732910 66.116211 Z " fill="rgb(255, 255, 255)" fill-opacity="1.000000" />
<path d="M 489.574219 76.020508 L 489.574219 76.933594 L 483.000000 76.933594 L 483.000000 76.020508 Z " fill="rgb(255, 255, 255)" fill-opacity="1.000000" />
<path d="M 491.869141 66.116211 L 492.728516 66.116211 Q 493.539551 67.383789 493.937012 68.597656 Q 494.334473 69.811523 494.334473 71.009277 Q 494.334473 72.217773 493.937012 73.431641 Q 493.539551 74.645508 492.728516 75.913086 L 491.869141 75.913086 Q 492.583496 74.666992 492.935303 73.447754 Q 493.287109 72.228516 493.287109 71.009277 Q 493.287109 69.784668 492.935303 68.565430 Q 492.583496 67.346191 491.869141 66.116211 Z " fill="rgb(255, 255, 255)" fill-opacity="1.000000" />
<path d="M 507.985352 66.594238 L 507.985352 77.594238 L 507.061523 77.594238 L 507.061523 66.594238 Z " fill="rgb(255, 255, 255)" fill-opacity="1.000000" />
<path d="M 517.574219 76.020508 L 517.574219 76.933594 L 511.000000 76.933594 L 511.000000 76.020508 Z " fill="rgb(255, 255, 255)" fill-opacity="1.000000" />
<path d="M 521.985352 66.594238 L 521.985352 77.594238 L 521.061523 77.594238 L 521.061523 66.594238 Z " fill="rgb(255, 255, 255)" fill-opacity="1.000000" />
<path d="M 535.985352 66.594238 L 535.985352 77.594238 L 535.061523 77.594238 L 535.061523 66.594238 Z " fill="rgb(255, 255, 255)" fill-opacity="1.000000" />
<path d="M 545.574219 76.020508 L 545.574219 76.933594 L 539.000000 76.933594 L 539.000000 76.020508 Z " fill="rgb(255, 255, 255)" fill-opacity="1.000000" />
<path d="M 549.985352 66.594238 L 549.985352 77.594238 L 549.061523 77.594238 L 549.061523 66.594238 Z " fill="rgb(255, 255, 255)" fill-opacity="1.000000" />
<path d="M 554.573730 66.980957 L 558.795410 76.020508 L 557.774902 76.020508 L 553.547852 66.980957 Z " fill="rgb(255, 255, 255)" fill-opacity="1.000000" />
<path d="M 566.574219 76.020508 L 566.574219 76.933594 L 560.000000 76.933594 L 560.000000 76.020508 Z " fill="rgb(255, 255, 255)" fill-opacity="1.000000" />
<path d="M 573.574219 76.020508 L 573.574219 76.933594 L 567.000000 76.933594 L 567.000000 76.020508 Z " fill="rgb(255, 255, 255)" fill-opacity="1.000000" />
<path d="M 580.574219 76.020508 L 580.574219 76.933594 L 574.000000 76.933594 L 574.000000 76.020508 Z " fill="rgb(255, 255, 255)" fill-opacity="1.000000" />
<path d="M 584.985352 66.594238 L 584.985352 77.594238 L 584.061523 77.594238 L 584.061523 66.594238 Z " fill="rgb(255, 255, 255)" fill-opacity="1.000000" />
<path d="M 589.573730 66.980957 L 593.795410 76.020508 L 592.774902 76.020508 L 588.547852 66.980957 Z " fill="rgb(255, 255, 255)" fill-opacity="1.000000" />
<path d="M 601.574219 76.020508 L 601.574219 76.933594 L 595.000000 76.933594 L 595.000000 76.020508 Z " fill="rgb(255, 255, 255)" fill-opacity="1.000000" />
<path d="M 608.574219 76.020508 L 608.574219 76.933594 L 602.000000 76.933594 L 602.000000 76.020508 Z " fill="rgb(255, 255, 255)" fill-opacity="1.000000" />
<path d="M 612.985352 66.594238 L 612.985352 77.594238 L 612.061523 77.594238 L 612.061523 66.594238 Z " fill="rgb(255, 255, 255)" fill-opacity="1.000000" />
<path d="M 31.308594 61.086914 L 33.193848 53.980957 L 34.316406 53.980957 L 31.969238 62.000000 L 30.653320 62.000000 L 28.306152 53.980957 L 29.428711 53.980957 Z " fill="rgb(255, 255, 255)" fill-opacity="1.000000" />
<path d="M 52.308594 61.086914 L 54.193848 53.980957 L 55.316406 53.980957 L 52.969238 62.000000 L 51.653320 62.000000 L 49.306152 53.980957 L 50.428711 53.980957 Z " fill="rgb(255, 255, 255)" fill-opacity="1.000000" />
<path d="M 67.774902 53.980957 L 68.795410 53.980957 L 64.573730 63.020508 L 63.547852 63.020508 Z " fill="rgb(255, 255, 255)" fill-opacity="1.000000" />
<path d="M 85.573730 53.980957 L 89.795410 63.020508 L 88.774902 63.020508 L 84.547852 53.980957 Z " fill="rgb(255, 255, 255)" fill-opacity="1.000000" />
<path d="M 101.308594 61.086914 L 103.193848 53.980957 L 104.316406 53.980957 L 101.969238 62.000000 L 100.653320 62.000000 L 98.306152 53.980957 L 99.428711 53.980957 Z " fill="rgb(255, 255, 255)" fill-opacity="1.000000" />
<path d="M 122.308594 61.086914 L 124.193848 53.980957 L 125.316406 53.980957 L 122.969238 62.000000 L 121.653320 62.000000 L 119.306152 53.980957 L 120.428711 53.980957 Z " fill="rgb(255, 255, 255)" fill-opacity="1.000000" />
<path d="M 137.774902 53.980957 L 138.795410 53.980957 L 134.573730 63.020508 L 133.547852 63.020508 Z " fill="rgb(255, 255, 255)" fill-opacity="1.000000" />
<path d="M 155.573730 53.980957 L 159.795410 63.020508 L 158.774902 63.020508 L 154.547852 53.980957 Z " fill="rgb(255, 255, 255)" fill-opacity="1.000000" />
<path d="M 171.308594 61.086914 L 173.193848 53.980957 L 174.316406 53.980957 L 171.969238 62.000000 L 170.653320 62.000000 L 168.306152 53.980957 L 169.428711 53.980957 Z " fill="rgb(255, 255, 255)" fill-opacity="1.000000" />
<path d="M 192.308594 61.086914 L 194.193848 53.980957 L 195.316406 53.980957 L 192.969238 62.000000 L 191.653320 62.000000 L 189.306152 53.980957 L 190.428711 53.980957 Z " fill="rgb(255, 255, 255)" fill-opacity="1.000000" />
<path d="M 207.774902 53.980957 L 208.795410 53.980957 L 204.573730 63.020508 L 203.547852 63.020508 Z " fill="rgb(255, 255, 255)" fill-opacity="1.000000" />
<path d="M 237.574219 63.020508 L 237.574219 63.933594 L 231.000000 63.933594 L 231.000000 63.020508 Z " fill="rgb(255, 255, 255)" fill-opacity="1.000000" />
<path d="M 255.985352 53.594238 L 255.985352 64.594238 L 255.061523 64.594238 L 255.061523 53.594238 Z " fill="rgb(255, 255, 255)" fill-opacity="1.000000" />
<path d="M 270.592285 53.116211 Q 269.877930 54.340820 269.526123 55.557373 Q 269.174316 56.773926 269.174316 58.009277 Q 269.174316 59.239258 269.526123 60.458496 Q 269.877930 61.677734 270.592285 62.913086 L 269.732910 62.913086 Q 268.921875 61.634766 268.524414 60.423584 Q 268.126953 59.212402 268.126953 58.009277 Q 268.126953 56.811523 268.524414 55.597656 Q 268.921875 54.383789 269.732910 53.116211 Z " fill="rgb(255, 255, 255)" fill-opacity="1.000000" />
<path d="M 279.574219 63.020508 L 279.574219 63.933594 L 273.000000 63.933594 L 273.000000 63.020508 Z " fill="rgb(255, 255, 255)" fill-opacity="1.000000" />
<path d="M 283.985352 53.594238 L 283.985352 64.594238 L 283.061523 64.594238 L 283.061523 53.594238 Z " fill="rgb(255, 255, 255)" fill-opacity="1.000000" />
<path d="M 295.573730 53.980957 L 299.795410 63.020508 L 298.774902 63.020508 L 294.547852 53.980957 Z " fill="rgb(255, 255, 255)" fill-opacity="1.000000" />
<path d="M 307.574219 63.020508 L 307.574219 63.933594 L 301.000000 63.933594 L 301.000000 63.020508 Z " fill="rgb(255, 255, 255)" fill-opacity="1.000000" />
<path d="M 314.574219 63.020508 L 314.574219 63.933594 L 308.000000 63.933594 L 308.000000 63.020508 Z " fill="rgb(255, 255, 255)" fill-opacity="1.000000" />
<path d="M 323.573730 53.980957 L 327.795410 63.020508 L 326.774902 63.020508 L 322.547852 53.980957 Z " fill="rgb(255, 255, 255)" fill-opacity="1.000000" />
<path d="M 340.592285 53.116211 Q 339.877930 54.340820 339.526123 55.557373 Q 339.174316 56.773926 339.174316 58.009277 Q 339.174316 59.239258 339.526123 60.458496 Q 339.877930 61.677734 340.592285 62.913086 L 339.732910 62.913086 Q 338.921875 61.634766 338.524414 60.423584 Q 338.126953 59.212402 338.126953 58.009277 Q 338.126953 56.811523 338.524414 55.597656 Q 338.921875 54.383789 339.732910 53.116211 Z " fill="rgb(255, 255, 255)" fill-opacity="1.000000" />
<path d="M 349.574219 63.020508 L 349.574219 63.933594 L 343.000000 63.933594 L 343.000000 63.020508 Z " fill="rgb(255, 255, 255)" fill-opacity="1.000000" />
<path d="M 353.985352 53.594238 L 353.985352 64.594238 L 353.061523 64.594238 L 353.061523 53.594238 Z " fill="rgb(255, 255, 255)" fill-opacity="1.000000" />
<path d="M 367.985352 53.594238 L 367.985352 64.594238 L 367.061523 64.594238 L 367.061523 53.594238 Z " fill="rgb(255, 255, 255)" fill-opacity="1.000000" />
<path d="M 381.985352 53.594238 L 381.985352 64.594238 L 381.061523 64.594238 L 381.061523 53.594238 Z " fill="rgb(255, 255, 255)" fill-opacity="1.000000" />
<path d="M 388.985352 53.594238 L 388.985352 64.594238 L 388.061523 64.594238 L 388.061523 53.594238 Z " fill="rgb(255, 255, 255)" fill-opacity="1.000000" />
<path d="M 403.592285 53.116211 Q 402.877930 54.340820 402.526123 55.557373 Q 402.174316 56.773926 402.174316 58.009277 Q 402.174316 59.239258 402.526123 60.458496 Q 402.877930 61.677734 403.592285 62.913086 L 402.732910 62.913086 Q 401.921875 61.634766 401.524414 60.423584 Q 401.126953 59.212402 401.126953 58.009277 Q 401.126953 56.811523 401.524414 55.597656 Q 401.921875 54.383789 402.732910 53.116211 Z " fill="rgb(255, 255, 255)" fill-opacity="1.000000" />
<path d="M 412.574219 63.020508 L 412.574219 63.933594 L 406.000000 63.933594 L 406.000000 63.020508 Z " fill="rgb(255, 255, 255)" fill-opacity="1.000000" />
<path d="M 414.869141 53.116211 L 415.728516 53.116211 Q 416.539551 54.383789 416.937012 55.597656 Q 417.334473 56.811523 417.334473 58.009277 Q 417.334473 59.217773 416.937012 60.431641 Q 416.539551 61.645508 415.728516 62.913086 L 414.869141 62.913086 Q 415.583496 61.666992 415.935303 60.447754 Q 416.287109 59.228516 416.287109 58.009277 Q 416.287109 56.784668 415.935303 55.565430 Q 415.583496 54.346191 414.869141 53.116211 Z " fill="rgb(255, 255, 255)" fill-opacity="1.000000" />
<path d="M 430.985352 53.594238 L 430.985352 64.594238 L 430.061523 64.594238 L 430.061523 53.594238 Z " fill="rgb(255, 255, 255)" fill-opacity="1.000000" />
<path d="M 444.985352 53.594238 L 444.985352 64.594238 L 444.061523 64.594238 L 444.061523 53.594238 Z " fill="rgb(255, 255, 255)" fill-opacity="1.000000" />
<path d="M 489.574219 63.020508 L 489.574219 63.933594 L 483.000000 63.933594 L 483.000000 63.020508 Z " fill="rgb(255, 255, 255)" fill-opacity="1.000000" />
<path d="M 507.985352 53.594238 L 507.985352 64.594238 L 507.061523 64.594238 L 507.061523 53.594238 Z " fill="rgb(255, 255, 255)" fill-opacity="1.000000" />
<path d="M 521.985352 53.594238 L 521.985352 64.594238 L 521.061523 64.594238 L 521.061523 53.594238 Z " fill="rgb(255, 255, 255)" fill-opacity="1.000000" />
<path d="M 535.985352 53.594238 L 535.985352 64.594238 L 535.061523 64.594238 L 535.061523 53.594238 Z " fill="rgb(255, 255, 255)" fill-opacity="1.000000" />
<path d="M 549.985352 53.594238 L 549.985352 64.594238 L 549.061523 64.594238 L 549.061523 53.594238 Z " fill="rgb(255, 255, 255)" fill-opacity="1.000000" />
<path d="M 573.574219 63.020508 L 573.574219 63.933594 L 567.000000 63.933594 L 567.000000 63.020508 Z " fill="rgb(255, 255, 255)" fill-opacity="1.000000" />
<path d="M 580.574219 63.020508 L 580.574219 63.933594 L 574.000000 63.933594 L 574.000000 63.020508 Z " fill="rgb(255, 255, 255)" fill-opacity="1.000000" />
<path d="M 585.774902 53.980957 L 586.795410 53.980957 L 582.573730 63.020508 L 581.547852 63.020508 Z " fill="rgb(255, 255, 255)" fill-opacity="1.000000" />
<path d="M 598.985352 53.594238 L 598.985352 64.594238 L 598.061523 64.594238 L 598.061523 53.594238 Z " fill="rgb(255, 255, 255)" fill-opacity="1.000000" />
<path d="M 608.574219 63.020508 L 608.574219 63.933594 L 602.000000 63.933594 L 602.000000 63.020508 Z " fill="rgb(255, 255, 255)" fill-opacity="1.000000" />
<path d="M 22.573730 40.980957 L 26.795410 50.020508 L 25.774902 50.020508 L 21.547852 40.980957 Z " fill="rgb(255, 255, 255)" fill-opacity="1.000000" />
<path d="M 39.774902 40.980957 L 40.795410 40.980957 L 36.573730 50.020508 L 35.547852 50.020508 Z " fill="rgb(255, 255, 255)" fill-opacity="1.000000" />
<path d="M 43.573730 40.980957 L 47.795410 50.020508 L 46.774902 50.020508 L 42.547852 40.980957 Z " fill="rgb(255, 255, 255)" fill-opacity="1.000000" />
<path d="M 60.774902 40.980957 L 61.795410 40.980957 L 57.573730 50.020508 L 56.547852 50.020508 Z " fill="rgb(255, 255, 255)" fill-opacity="1.000000" />
<path d="M 74.774902 40.980957 L 75.795410 40.980957 L 71.573730 50.020508 L 70.547852 50.020508 Z " fill="rgb(255, 255, 255)" fill-opacity="1.000000" />
<path d="M 78.573730 40.980957 L 82.795410 50.020508 L 81.774902 50.020508 L 77.547852 40.980957 Z " fill="rgb(255, 255, 255)" fill-opacity="1.000000" />
<path d="M 92.573730 40.980957 L 96.795410 50.020508 L 95.774902 50.020508 L 91.547852 40.980957 Z " fill="rgb(255, 255, 255)" fill-opacity="1.000000" />
<path d="M 109.774902 40.980957 L 110.795410 40.980957 L 106.573730 50.020508 L 105.547852 50.020508 Z " fill="rgb(255, 255, 255)" fill-opacity="1.000000" />
<path d="M 113.573730 40.980957 L 117.795410 50.020508 L 116.774902 50.020508 L 112.547852 40.980957 Z " fill="rgb(255, 255, 255)" fill-opacity="1.000000" />
<path d="M 130.774902 40.980957 L 131.795410 40.980957 L 127.573730 50.020508 L 126.547852 50.020508 Z " fill="rgb(255, 255, 255)" fill-opacity="1.000000" />
<path d="M 144.774902 40.980957 L 145.795410 40.980957 L 141.573730 50.020508 L 140.547852 50.020508 Z " fill="rgb(255, 255, 255)" fill-opacity="1.000000" />
<path d="M 148.573730 40.980957 L 152.795410 50.020508 L 151.774902 50.020508 L 147.547852 40.980957 Z " fill="rgb(255, 255, 255)" fill-opacity="1.000000" />
<path d="M 162.573730 40.980957 L 166.795410 50.020508 L 165.774902 50.020508 L 161.547852 40.980957 Z " fill="rgb(255, 255, 255)" fill-opacity="1.000000" />
<path d="M 179.774902 40.980957 L 180.795410 40.980957 L 176.573730 50.020508 L 175.547852 50.020508 Z " fill="rgb(255, 255, 255)" fill-opacity="1.000000" />
<path d="M 183.573730 40.980957 L 187.795410 50.020508 L 186.774902 50.020508 L 182.547852 40.980957 Z " fill="rgb(255, 255, 255)" fill-opacity="1.000000" />
<path d="M 200.774902 40.980957 L 201.795410 40.980957 L 197.573730 50.020508 L 196.547852 50.020508 Z " fill="rgb(255, 255, 255)" fill-opacity="1.000000" />
<path d="M 214.774902 40.980957 L 215.795410 40.980957 L 211.573730 50.020508 L 210.547852 50.020508 Z " fill="rgb(255, 255, 255)" fill-opacity="1.000000" />
<path d="M 263.774902 40.980957 L 264.795410 40.980957 L 260.573730 50.020508 L 259.547852 50.020508 Z " fill="rgb(255, 255, 255)" fill-opacity="1.000000" />
<path d="M 279.574219 50.020508 L 279.574219 50.933594 L 273.000000 50.933594 L 273.000000 50.020508 Z " fill="rgb(255, 255, 255)" fill-opacity="1.000000" />
<path d="M 282.562012 40.202148 L 284.071289 42.221680 L 283.244141 42.221680 L 281.498535 40.202148 Z " fill="rgb(255, 255, 255)" fill-opacity="1.000000" />
<path d="M 298.774902 40.980957 L 299.795410 40.980957 L 295.573730 50.020508 L 294.547852 50.020508 Z " fill="rgb(255, 255, 255)" fill-opacity="1.000000" />
<path d="M 314.574219 50.020508 L 314.574219 50.933594 L 308.000000 50.933594 L 308.000000 50.020508 Z " fill="rgb(255, 255, 255)" fill-opacity="1.000000" />
<path d="M 321.574219 50.020508 L 321.574219 50.933594 L 315.000000 50.933594 L 315.000000 50.020508 Z " fill="rgb(255, 255, 255)" fill-opacity="1.000000" />
<path d="M 325.985352 40.594238 L 325.985352 51.594238 L 325.061523 51.594238 L 325.061523 40.594238 Z " fill="rgb(255, 255, 255)" fill-opacity="1.000000" />
<path d="M 333.774902 40.980957 L 334.795410 40.980957 L 330.573730 50.020508 L 329.547852 50.020508 Z " fill="rgb(255, 255, 255)" fill-opacity="1.000000" />
<path d="M 349.574219 50.020508 L 349.574219 50.933594 L 343.000000 50.933594 L 343.000000 50.020508 Z " fill="rgb(255, 255, 255)" fill-opacity="1.000000" />
<path d="M 352.562012 40.202148 L 354.071289 42.221680 L 353.244141 42.221680 L 351.498535 40.202148 Z " fill="rgb(255, 255, 255)" fill-opacity="1.000000" />
<path d="M 367.985352 40.594238 L 367.985352 51.594238 L 367.061523 51.594238 L 367.061523 40.594238 Z " fill="rgb(255, 255, 255)" fill-opacity="1.000000" />
<path d="M 384.574219 50.020508 L 384.574219 50.933594 L 378.000000 50.933594 L 378.000000 50.020508 Z " fill="rgb(255, 255, 255)" fill-opacity="1.000000" />
<path d="M 391.574219 50.020508 L 391.574219 50.933594 L 385.000000 50.933594 L 385.000000 50.020508 Z " fill="rgb(255, 255, 255)" fill-opacity="1.000000" />
<path d="M 396.774902 40.980957 L 397.795410 40.980957 L 393.573730 50.020508 L 392.547852 50.020508 Z " fill="rgb(255, 255, 255)" fill-opacity="1.000000" />
<path d="M 412.574219 50.020508 L 412.574219 50.933594 L 406.000000 50.933594 L 406.000000 50.020508 Z " fill="rgb(255, 255, 255)" fill-opacity="1.000000" />
<path d="M 421.573730 40.980957 L 425.795410 50.020508 L 424.774902 50.020508 L 420.547852 40.980957 Z " fill="rgb(255, 255, 255)" fill-opacity="1.000000" />
<path d="M 430.985352 40.594238 L 430.985352 51.594238 L 430.061523 51.594238 L 430.061523 40.594238 Z " fill="rgb(255, 255, 255)" fill-opacity="1.000000" />
<path d="M 444.985352 40.631836 L 444.985352 43.978027 L 443.782227 43.978027 L 443.782227 40.631836 Z " fill="rgb(255, 255, 255)" fill-opacity="1.000000" />
<path d="M 454.574219 50.020508 L 454.574219 50.933594 L 448.000000 50.933594 L 448.000000 50.020508 Z " fill="rgb(255, 255, 255)" fill-opacity="1.000000" />
<path d="M 461.574219 50.020508 L 461.574219 50.933594 L 455.000000 50.933594 L 455.000000 50.020508 Z " fill="rgb(255, 255, 255)" fill-opacity="1.000000" />
<path d="M 465.985352 40.594238 L 465.985352 51.594238 L 465.061523 51.594238 L 465.061523 40.594238 Z " fill="rgb(255, 255, 255)" fill-opacity="1.000000" />
<path d="M 507.985352 40.594238 L 507.985352 51.594238 L 507.061523 51.594238 L 507.061523 40.594238 Z " fill="rgb(255, 255, 255)" fill-opacity="1.000000" />
<path d="M 521.985352 40.631836 L 521.985352 43.978027 L 520.782227 43.978027 L 520.782227 40.631836 Z " fill="rgb(255, 255, 255)" fill-opacity="1.000000" />
<path d="M 531.574219 50.020508 L 531.574219 50.933594 L 525.000000 50.933594 L 525.000000 50.020508 Z " fill="rgb(255, 255, 255)" fill-opacity="1.000000" />
<path d="M 540.573730 40.980957 L 544.795410 50.020508 L 543.774902 50.020508 L 539.547852 40.980957 Z " fill="rgb(255, 255, 255)" fill-opacity="1.000000" />
<path d="M 557.774902 40.980957 L 558.795410 40.980957 L 554.573730 50.020508 L 553.547852 50.020508 Z " fill="rgb(255, 255, 255)" fill-opacity="1.000000" />
<path d="M 573.574219 50.020508 L 573.574219 50.933594 L 567.000000 50.933594 L 567.000000 50.020508 Z " fill="rgb(255, 255, 255)" fill-opacity="1.000000" />
<path d="M 582.573730 40.980957 L 586.795410 50.020508 L 585.774902 50.020508 L 581.547852 40.980957 Z " fill="rgb(255, 255, 255)" fill-opacity="1.000000" />
<path d="M 601.574219 50.020508 L 601.574219 50.933594 L 595.000000 50.933594 L 595.000000 50.020508 Z " fill="rgb(255, 255, 255)" fill-opacity="1.000000" />
<path d="M 608.574219 50.020508 L 608.574219 50.933594 L 602.000000 50.933594 L 602.000000 50.020508 Z " fill="rgb(255, 255, 255)" fill-opacity="1.000000" />
<path d="M 612.985352 40.594238 L 612.985352 51.594238 L 612.061523 51.594238 L 612.061523 40.594238 Z " fill="rgb(255, 255, 255)" fill-opacity="1.000000" />
<path d="M 69.574219 37.020508 L 69.574219 37.933594 L 63.000000 37.933594 L 63.000000 37.020508 Z " fill="rgb(255, 255, 255)" fill-opacity="1.000000" />
<path d="M 76.574219 37.020508 L 76.574219 37.933594 L 70.000000 37.933594 L 70.000000 37.020508 Z " fill="rgb(255, 255, 255)" fill-opacity="1.000000" />
<path d="M 83.574219 37.020508 L 83.574219 37.933594 L 77.000000 37.933594 L 77.000000 37.020508 Z " fill="rgb(255, 255, 255)" fill-opacity="1.000000" />
<path d="M 90.574219 37.020508 L 90.574219 37.933594 L 84.000000 37.933594 L 84.000000 37.020508 Z " fill="rgb(255, 255, 255)" fill-opacity="1.000000" />
<path d="M 139.574219 37.020508 L 139.574219 37.933594 L 133.000000 37.933594 L 133.000000 37.020508 Z " fill="rgb(255, 255, 255)" fill-opacity="1.000000" />
<path d="M 146.574219 37.020508 L 146.574219 37.933594 L 140.000000 37.933594 L 140.000000 37.020508 Z " fill="rgb(255, 255, 255)" fill-opacity="1.000000" />
<path d="M 153.574219 37.020508 L 153.574219 37.933594 L 147.000000 37.933594 L 147.000000 37.020508 Z " fill="rgb(255, 255, 255)" fill-opacity="1.000000" />
<path d="M 160.574219 37.020508 L 160.574219 37.933594 L 154.000000 37.933594 L 154.000000 37.020508 Z " fill="rgb(255, 255, 255)" fill-opacity="1.000000" />
<path d="M 209.574219 37.020508 L 209.574219 37.933594 L 203.000000 37.933594 L 203.000000 37.020508 Z " fill="rgb(255, 255, 255)" fill-opacity="1.000000" />
<path d="M 216.574219 37.020508 L 216.574219 37.933594 L 210.000000 37.933594 L 210.000000 37.020508 Z " fill="rgb(255, 255, 255)" fill-opacity="1.000000" />
<path d="M 272.574219 37.020508 L 272.574219 37.933594 L 266.000000 37.933594 L 266.000000 37.020508 Z " fill="rgb(255, 255, 255)" fill-opacity="1.000000" />
<path d="M 279.574219 37.020508 L 279.574219 37.933594 L 273.000000 37.933594 L 273.000000 37.020508 Z " fill="rgb(255, 255, 255)" fill-opacity="1.000000" />
<path d="M 293.574219 37.020508 L 293.574219 37.933594 L 287.000000 37.933594 L 287.000000 37.020508 Z " fill="rgb(255, 255, 255)" fill-opacity="1.000000" />
<path d="M 307.574219 37.020508 L 307.574219 37.933594 L 301.000000 37.933594 L 301.000000 37.020508 Z " fill="rgb(255, 255, 255)" fill-opacity="1.000000" />
<path d="M 314.574219 37.020508 L 314.574219 37.933594 L 308.000000 37.933594 L 308.000000 37.020508 Z " fill="rgb(255, 255, 255)" fill-opacity="1.000000" />
<path d="M 321.574219 37.020508 L 321.574219 37.933594 L 315.000000 37.933594 L 315.000000 37.020508 Z " fill="rgb(255, 255, 255)" fill-opacity="1.000000" />
<path d="M 342.574219 37.020508 L 342.574219 37.933594 L 336.000000 37.933594 L 336.000000 37.020508 Z " fill="rgb(255, 255, 255)" fill-opacity="1.000000" />
<path d="M 349.574219 37.020508 L 349.574219 37.933594 L 343.000000 37.933594 L 343.000000 37.020508 Z " fill="rgb(255, 255, 255)" fill-opacity="1.000000" />
<path d="M 363.574219 37.020508 L 363.574219 37.933594 L 357.000000 37.933594 L 357.000000 37.020508 Z " fill="rgb(255, 255, 255)" fill-opacity="1.000000" />
<path d="M 367.985352 27.594238 L 367.985352 38.594238 L 367.061523 38.594238 L 367.061523 27.594238 Z " fill="rgb(255, 255, 255)" fill-opacity="1.000000" />
<path d="M 381.985352 27.594238 L 381.985352 38.594238 L 381.061523 38.594238 L 381.061523 27.594238 Z " fill="rgb(255, 255, 255)" fill-opacity="1.000000" />
<path d="M 391.574219 37.020508 L 391.574219 37.933594 L 385.000000 37.933594 L 385.000000 37.020508 Z " fill="rgb(255, 255, 255)" fill-opacity="1.000000" />
<path d="M 405.574219 37.020508 L 405.574219 37.933594 L 399.000000 37.933594 L 399.000000 37.020508 Z " fill="rgb(255, 255, 255)" fill-opacity="1.000000" />
<path d="M 412.574219 37.020508 L 412.574219 37.933594 L 406.000000 37.933594 L 406.000000 37.020508 Z " fill="rgb(255, 255, 255)" fill-opacity="1.000000" />
<path d="M 419.574219 37.020508 L 419.574219 37.933594 L 413.000000 37.933594 L 413.000000 37.020508 Z " fill="rgb(255, 255, 255)" fill-opacity="1.000000" />
<path d="M 440.574219 37.020508 L 440.574219 37.933594 L 434.000000 37.933594 L 434.000000 37.020508 Z " fill="rgb(255, 255, 255)" fill-opacity="1.000000" />
<path d="M 454.574219 37.020508 L 454.574219 37.933594 L 448.000000 37.933594 L 448.000000 37.020508 Z " fill="rgb(255, 255, 255)" fill-opacity="1.000000" />
<path d="M 461.574219 37.020508 L 461.574219 37.933594 L 455.000000 37.933594 L 455.000000 37.020508 Z " fill="rgb(255, 255, 255)" fill-opacity="1.000000" />
<path d="M 517.574219 37.020508 L 517.574219 37.933594 L 511.000000 37.933594 L 511.000000 37.020508 Z " fill="rgb(255, 255, 255)" fill-opacity="1.000000" />
<path d="M 531.574219 37.020508 L 531.574219 37.933594 L 525.000000 37.933594 L 525.000000 37.020508 Z " fill="rgb(255, 255, 255)" fill-opacity="1.000000" />
<path d="M 538.574219 37.020508 L 538.574219 37.933594 L 532.000000 37.933594 L 532.000000 37.020508 Z " fill="rgb(255, 255, 255)" fill-opacity="1.000000" />
<path d="M 566.574219 37.020508 L 566.574219 37.933594 L 560.000000 37.933594 L 560.000000 37.020508 Z " fill="rgb(255, 255, 255)" fill-opacity="1.000000" />
<path d="M 573.574219 37.020508 L 573.574219 37.933594 L 567.000000 37.933594 L 567.000000 37.020508 Z " fill="rgb(255, 255, 255)" fill-opacity="1.000000" />
<path d="M 580.574219 37.020508 L 580.574219 37.933594 L 574.000000 37.933594 L 574.000000 37.020508 Z " fill="rgb(255, 255, 255)" fill-opacity="1.000000" />
<path d="M 584.985352 27.594238 L 584.985352 38.594238 L 584.061523 38.594238 L 584.061523 27.594238 Z " fill="rgb(255, 255, 255)" fill-opacity="1.000000" />
<path d="M 598.985352 27.594238 L 598.985352 38.594238 L 598.061523 38.594238 L 598.061523 27.594238 Z " fill="rgb(255, 255, 255)" fill-opacity="1.000000" />
<path d="M 608.574219 37.020508 L 608.574219 37.933594 L 602.000000 37.933594 L 602.000000 37.020508 Z " fill="rgb(255, 255, 255)" fill-opacity="1.000000" />
<path d="M 367.985352 14.594238 L 367.985352 25.594238 L 367.061523 25.594238 L 367.061523 14.594238 Z " fill="rgb(255, 255, 255)" fill-opacity="1.000000" />
<path d="M 381.985352 14.594238 L 381.985352 25.594238 L 381.061523 25.594238 L 381.061523 14.594238 Z " fill="rgb(255, 255, 255)" fill-opacity="1.000000" />
<path d="M 584.985352 14.594238 L 584.985352 25.594238 L 584.061523 25.594238 L 584.061523 14.594238 Z " fill="rgb(255, 255, 255)" fill-opacity="1.000000" />
<path d="M 598.985352 14.594238 L 598.985352 25.594238 L 598.061523 25.594238 L 598.061523 14.594238 Z " fill="rgb(255, 255, 255)" fill-opacity="1.000000" />
<path d="M 377.574219 11.020508 L 377.574219 11.933594 L 371.000000 11.933594 L 371.000000 11.020508 Z " fill="rgb(255, 255, 255)" fill-opacity="1.000000" />
<path d="M 594.574219 11.020508 L 594.574219 11.933594 L 588.000000 11.933594 L 588.000000 11.020508 Z " fill="rgb(255, 255, 255)" fill-opacity="1.000000" />
</svg>